<svg width="301" height="58" viewBox="0 0 301 58" fill="none" xmlns="http://www.w3.org/2000/svg">
<path d="M28.5723 56.0002L21.2763 42.3042H16.7963V56.0002H4.44425V11.2002H23.9003C33.5003 11.2002 40.5403 17.7282 40.5403 27.0722C40.5403 32.5762 37.8523 37.1202 33.4363 39.7442L42.3323 56.0002H28.5723ZM16.7963 22.2082V31.9362H22.4283C25.8843 31.9362 27.8683 29.8242 27.8683 27.0722C27.8683 24.2562 25.8843 22.2082 22.4283 22.2082H16.7963ZM74.2723 21.4402H83.1683V56.0002H73.9523L72.9283 53.5682C70.1123 55.8722 66.5283 57.1522 62.4963 57.1522C51.9363 57.1522 44.3843 49.4722 44.3843 38.7202C44.3843 28.0322 51.9363 20.4162 62.4963 20.4162C66.5923 20.4162 70.2403 21.7602 73.0563 24.1282L74.2723 21.4402ZM64.0963 46.6562C68.5763 46.6562 71.8403 43.2642 71.8403 38.7202C71.8403 34.2402 68.5763 30.9122 64.0963 30.9122C59.6163 30.9122 56.3523 34.2402 56.3523 38.7202C56.3523 43.2642 59.6163 46.6562 64.0963 46.6562ZM125.817 56.0002H111.737L103.097 41.4082V56.0002H91.1927V8.96024H103.097V35.0082L111.353 21.4402H124.729L113.913 37.9522L125.817 56.0002ZM162.827 38.4002C162.827 39.4882 162.763 40.5122 162.635 41.6002H136.971C137.739 45.5682 140.235 47.6162 144.011 47.6162C146.763 47.6162 149.131 46.4002 150.219 44.3522H162.123C159.691 52.2242 152.651 57.1522 144.011 57.1522C133.195 57.1522 125.259 49.2802 125.259 38.7202C125.259 28.1602 133.131 20.3522 144.011 20.3522C155.147 20.3522 162.827 28.2882 162.827 38.4002ZM144.011 29.6962C140.555 29.6962 138.123 31.5522 137.163 35.0082H151.115C150.091 31.5522 147.595 29.6962 144.011 29.6962ZM181.889 45.4402H195.073V56.0002H165.249V54.2722L178.497 32.0002H166.401V21.4402H194.945V23.4242L181.889 45.4402ZM235.765 38.4002C235.765 39.4882 235.701 40.5122 235.573 41.6002H209.909C210.677 45.5682 213.173 47.6162 216.949 47.6162C219.701 47.6162 222.069 46.4002 223.157 44.3522H235.061C232.629 52.2242 225.589 57.1522 216.949 57.1522C206.133 57.1522 198.197 49.2802 198.197 38.7202C198.197 28.1602 206.069 20.3522 216.949 20.3522C228.085 20.3522 235.765 28.2882 235.765 38.4002ZM216.949 29.6962C213.493 29.6962 211.061 31.5522 210.101 35.0082H224.053C223.029 31.5522 220.533 29.6962 216.949 29.6962ZM259.433 45.6322H263.977V56.0002H255.785C248.169 56.0002 243.497 51.3282 243.497 43.6482V30.6562H237.161V27.8402L252.649 11.3922H255.145V21.4402H263.785V30.6562H255.401V41.6642C255.401 44.0962 256.937 45.6322 259.433 45.6322Z" fill="white"/>
<path d="M290.582 18.929C290.683 20.8765 290.298 22.8536 289.092 24.3177C287.543 26.1979 284.362 26.6888 282.794 24.8256C281.416 23.1883 281.802 20.7305 281.945 18.5669C281.969 18.2095 281.971 17.8115 281.74 17.5442C281.478 17.2397 281.029 17.2289 280.635 17.2466C278.301 17.352 275.848 17.6519 273.723 16.6497C271.608 15.652 270.262 12.9354 271.434 10.7028C272.782 8.13387 276.507 7.78326 278.993 8.03525C279.799 8.11677 280.718 8.21483 281.317 7.65213C282.133 6.88533 281.773 5.5296 281.771 4.39108C281.766 2.13857 283.705 0.0707683 285.887 0.00178466C288.069 -0.067199 290.127 1.87347 290.256 4.12199C290.34 5.58889 289.964 7.5649 291.288 8.10708C291.647 8.25417 292.048 8.22965 292.432 8.19488C293.875 8.06261 295.322 7.80549 296.764 7.95429C298.205 8.10309 299.686 8.73363 300.469 9.99073C301.866 12.2341 300.317 15.4165 298.003 16.6029C295.688 17.7893 292.958 17.5533 290.386 17.2893C290.486 17.8252 290.554 18.376 290.582 18.9295V18.929Z" fill="white"/>
</svg>
